<?xml version="1.0" standalone="no"?>
<!DOCTYPE svg PUBLIC "-//W3C//DTD SVG 20010904//EN"
 "http://www.w3.org/TR/2001/REC-SVG-20010904/DTD/svg10.dtd">
<svg version="1.0" xmlns="http://www.w3.org/2000/svg"
 width="500.000000pt" height="500.000000pt" viewBox="0 0 500.000000 500.000000"
 preserveAspectRatio="xMidYMid meet">

<g transform="translate(0.000000,500.000000) scale(0.100000,-0.100000)"
fill="#000000" stroke="none">
<path d="M2350 4165 c-8 -21 -16 -25 -53 -25 -38 0 -44 -3 -53 -28 -9 -24 -17
-29 -50 -30 -25 -1 -44 -8 -54 -21 -9 -13 -30 -21 -55 -23 -32 -2 -40 -7 -45
-28 -5 -22 -12 -25 -53 -28 -39 -3 -50 -7 -57 -26 -5 -13 -18 -26 -29 -29 -21
-5 -21 -10 -21 -325 0 -282 -2 -321 -16 -326 -9 -3 -51 -6 -95 -6 -76 0 -80
-1 -89 -25 -9 -25 -11 -25 -128 -25 -117 0 -119 0 -130 -25 -10 -21 -19 -25
-52 -25 -34 0 -41 -4 -46 -25 -5 -22 -12 -25 -50 -25 -38 0 -44 -3 -50 -24 -5
-21 -13 -25 -47 -28 -32 -2 -44 -8 -52 -25 -7 -17 -19 -23 -55 -25 l-45 -3 -3
-331 -2 -331 25 -11 c15 -7 25 -20 25 -32 0 -11 7 -20 15 -20 18 0 85 -64 85
-80 0 -6 11 -15 24 -20 13 -5 27 -18 31 -29 3 -12 13 -21 21 -21 8 0 19 -11
24 -25 5 -14 16 -25 25 -25 9 0 20 -11 25 -25 5 -14 16 -25 25 -25 9 0 20 -11
25 -24 5 -13 18 -27 29 -31 19 -6 21 -14 21 -76 0 -64 2 -70 24 -78 17 -7 25
-20 30 -51 5 -31 12 -43 31 -50 15 -6 25 -17 25 -29 0 -13 8 -21 23 -23 14 -2
23 -11 25 -26 3 -22 10 -24 72 -26 18 -1 26 -7 28 -23 3 -22 7 -23 135 -25
153 -1 171 0 175 11 10 30 29 37 89 33 55 -3 62 -6 67 -28 5 -20 13 -24 44
-24 41 0 52 6 68 34 7 14 22 20 50 20 37 1 39 3 42 34 l3 32 -183 -2 c-179 -3
-183 -3 -186 -25 -3 -19 -10 -22 -73 -25 -38 -2 -101 -1 -140 0 -64 3 -71 6
-79 28 -8 19 -17 24 -43 24 -22 0 -41 8 -53 21 -10 12 -29 25 -41 30 -36 14
-18 39 28 39 33 0 40 -4 45 -25 5 -21 12 -25 45 -25 30 0 42 -5 55 -25 15 -23
23 -25 85 -25 62 0 70 2 85 25 13 20 25 25 55 25 33 0 41 4 49 25 8 20 16 25
45 25 26 0 39 6 51 25 13 20 25 25 55 25 33 0 41 4 49 25 8 21 16 25 50 25 34
0 42 4 50 25 7 20 17 25 42 25 38 0 52 8 61 33 4 11 17 17 39 17 38 0 50 7 65
34 7 12 24 20 49 23 24 2 44 11 53 23 20 30 123 29 143 -1 10 -16 25 -22 53
-23 33 -1 40 -5 45 -26 5 -22 12 -25 60 -28 73 -4 99 4 111 34 8 21 14 25 34
20 30 -8 65 8 65 29 0 10 10 15 29 15 42 0 61 10 72 36 7 20 16 24 48 24 30 0
42 5 55 25 13 20 25 25 56 25 31 0 40 4 41 18 0 9 0 64 0 122 0 112 3 120 52
120 20 0 30 -7 37 -25 7 -19 19 -26 50 -31 22 -4 46 -15 53 -24 7 -10 21 -19
32 -21 17 -4 20 -14 23 -76 l3 -72 -48 -3 c-41 -3 -48 -6 -51 -25 -3 -19 -11
-22 -50 -25 -39 -2 -48 -7 -50 -24 -2 -15 -12 -24 -33 -28 -16 -3 -29 -11 -29
-17 0 -6 -11 -22 -25 -35 -33 -31 -33 -77 0 -108 14 -13 25 -28 25 -34 0 -5
14 -15 30 -21 17 -5 30 -16 30 -24 0 -8 10 -21 21 -29 17 -11 21 -24 22 -68 0
-68 9 -80 58 -80 31 0 38 -4 41 -22 2 -18 12 -24 48 -30 26 -5 51 -16 60 -27
13 -18 29 -20 127 -22 61 -1 116 2 122 5 6 4 11 38 11 80 0 66 -3 76 -26 100
-15 14 -35 26 -46 26 -11 0 -22 11 -28 25 -9 25 -47 35 -64 18 -4 -5 -13 -8
-19 -8 -5 0 -12 -6 -14 -12 -3 -8 4 -13 16 -13 11 0 23 -4 26 -10 3 -5 15 -10
26 -10 12 0 19 -7 19 -20 0 -13 10 -24 25 -30 21 -8 25 -16 25 -50 l0 -40 -90
0 c-87 0 -91 1 -100 25 -8 21 -16 25 -50 25 -34 0 -42 4 -50 25 -6 16 -17 25
-30 25 -19 0 -21 5 -18 43 3 42 3 42 43 42 146 2 155 4 155 29 0 14 -5 28 -12
32 -7 4 -62 9 -122 11 -104 3 -118 7 -128 36 -2 4 -23 11 -48 15 -43 7 -45 9
-45 42 0 27 5 37 23 45 12 5 25 18 28 27 4 13 16 18 46 18 35 0 41 4 51 30 10
27 16 30 54 30 32 0 43 4 48 18 3 11 17 24 30 30 24 11 25 15 25 106 0 60 -4
97 -11 102 -6 4 -29 7 -50 7 -31 0 -39 4 -41 21 -2 17 -11 22 -46 24 -34 3
-45 8 -54 27 -8 18 -22 26 -54 31 -23 3 -45 12 -48 19 -2 7 -5 250 -5 541 0
291 -1 546 -1 567 0 30 -5 40 -19 44 -10 2 -24 16 -30 29 -8 19 -18 24 -49 24
-32 0 -41 5 -50 25 -10 21 -19 25 -52 25 -34 0 -42 4 -50 25 -9 25 -23 30 -68
26 -16 -1 -25 4 -29 19 -5 20 -22 27 -78 32 -22 2 -31 9 -33 26 -4 24 -3 24
-52 28 -22 1 -40 10 -49 23 -10 16 -24 21 -56 21 -39 0 -44 3 -54 30 -9 27
-15 30 -50 30 -30 0 -41 5 -45 18 -4 13 -22 22 -54 28 -38 7 -48 13 -50 32 -3
19 -9 22 -46 22 -36 0 -45 4 -54 25 -10 21 -19 25 -52 25 -34 0 -42 -4 -50
-25z m95 -65 c0 -23 4 -25 52 -28 45 -3 52 -6 55 -25 3 -19 10 -22 48 -23 31
0 45 -5 46 -15 1 -8 2 -20 3 -26 1 -9 18 -13 50 -13 44 0 50 -3 53 -22 2 -19
10 -24 46 -26 35 -3 45 -8 52 -28 8 -21 16 -24 55 -24 37 0 45 -3 45 -19 0
-22 19 -31 65 -31 27 0 34 -4 37 -22 3 -20 10 -23 51 -26 40 -3 49 -7 57 -28
9 -24 21 -28 72 -24 21 1 27 -4 30 -22 3 -20 10 -23 51 -26 26 -2 47 -7 47
-13 0 -5 0 -12 0 -16 0 -5 -21 -10 -47 -13 -40 -4 -49 -9 -51 -27 -3 -20 -9
-23 -48 -23 -38 0 -46 -3 -54 -25 -8 -20 -16 -25 -44 -25 -33 0 -66 -21 -66
-41 0 -5 -20 -9 -45 -9 -39 0 -47 -3 -55 -25 -5 -14 -13 -26 -17 -26 -82 -12
-105 -8 -118 23 -6 14 -20 24 -38 26 -23 3 -28 -1 -33 -27 -7 -33 -24 -40 -43
-17 -8 10 -9 16 -1 21 16 10 12 62 -6 69 -9 3 -29 6 -45 6 -23 0 -32 6 -39 26
-10 26 -11 26 -108 23 l-97 -4 0 42 c0 58 -12 66 -84 61 -59 -4 -61 -3 -61 19
0 16 -8 27 -26 33 -14 6 -28 19 -31 30 -4 17 -14 20 -54 20 -42 0 -49 3 -49
19 0 25 -13 33 -56 33 -28 0 -37 5 -44 24 -5 13 -18 24 -28 24 -24 0 -32 8
-25 26 3 8 18 14 35 14 36 0 68 16 68 35 0 10 15 15 47 17 41 3 48 6 53 28 5
19 12 24 31 22 41 -5 69 7 69 28 0 17 7 20 45 20 32 0 47 5 50 15 3 8 7 21 9
29 3 10 18 14 48 13 39 -2 43 -4 43 -27z m-385 -350 c0 -5 -4 -10 -9 -10 -6 0
-13 5 -16 10 -3 6 1 10 9 10 9 0 16 -4 16 -10z m-40 -40 c0 -5 -5 -10 -11 -10
-5 0 -7 5 -4 10 3 6 8 10 11 10 2 0 4 -4 4 -10z m220 -60 c0 -5 -5 -10 -11
-10 -5 0 -7 5 -4 10 3 6 8 10 11 10 2 0 4 -4 4 -10z m1121 -107 c1 -38 1 -268
0 -495 -1 -180 -2 -188 -21 -188 -10 0 -24 -8 -29 -19 -6 -11 -26 -21 -51 -25
-31 -5 -43 -12 -50 -31 -8 -20 -16 -25 -45 -25 -25 0 -43 -7 -58 -24 -15 -16
-36 -26 -62 -28 -33 -2 -41 -7 -43 -26 -2 -15 -9 -22 -20 -20 -25 5 -39 88
-24 142 7 28 10 131 7 307 -1 145 1 272 6 281 6 11 24 18 51 20 36 3 43 7 48
28 5 21 12 25 48 28 29 2 46 10 57 25 11 16 23 21 50 18 25 -2 36 2 40 13 3 9
7 23 10 31 3 10 18 15 45 15 37 0 40 -2 41 -27z m-1106 -193 c0 -28 6 -27
-120 -29 -88 -1 -95 -3 -95 -21 0 -12 -9 -22 -24 -26 -41 -10 -61 -1 -61 26 0
22 5 25 37 28 28 2 37 8 42 26 6 23 8 24 113 22 l108 -1 0 -25z m172 -28 c14
-1 23 -10 25 -24 3 -20 9 -23 53 -23 45 0 50 -2 53 -23 4 -27 28 -40 44 -24
15 15 58 -14 58 -40 0 -16 3 -17 20 -8 14 8 20 8 20 0 0 -11 12 -28 42 -59 16
-16 18 -55 18 -486 1 -413 -1 -470 -15 -477 -8 -5 -19 -6 -25 -3 -5 3 -9 127
-10 297 0 248 -3 295 -16 309 -10 11 -12 19 -5 24 6 3 8 17 5 30 -3 12 -1 26
5 29 7 5 11 56 11 142 l0 134 -25 0 c-18 0 -26 7 -31 25 -5 22 -12 25 -49 25
-38 0 -44 3 -52 27 -8 23 -15 27 -54 27 -38 1 -44 4 -47 24 -4 23 -8 24 -157
26 -33 1 -41 5 -43 23 -2 14 3 23 15 25 17 4 110 3 160 0z m-189 -79 c-2 -13
-15 -19 -46 -21 -35 -3 -45 -8 -52 -28 -8 -20 -16 -24 -50 -24 -33 0 -42 -4
-52 -25 -9 -20 -18 -25 -49 -25 -30 0 -42 -6 -55 -25 -12 -18 -25 -25 -48 -25
-36 0 -50 -8 -59 -32 -5 -13 -17 -18 -46 -18 -35 0 -43 -4 -56 -31 -14 -27
-21 -30 -52 -27 -27 2 -38 -2 -47 -17 -16 -28 -24 -33 -52 -27 -29 5 -54 -13
-54 -39 0 -12 -7 -19 -20 -19 -13 0 -24 -10 -30 -25 -5 -14 -14 -25 -20 -25
-6 0 -15 11 -20 25 -9 23 -15 25 -65 25 -44 0 -55 -3 -55 -16 0 -13 -3 -14
-14 -5 -7 6 -20 9 -28 6 -8 -3 -26 3 -39 14 -13 11 -18 20 -11 21 7 0 12 14
12 34 0 41 -12 51 -60 51 -25 0 -35 5 -38 18 -3 14 4 17 41 17 40 0 46 3 54
27 8 23 15 27 48 27 31 1 42 6 51 25 10 20 21 25 55 25 37 1 44 4 49 26 6 25
6 25 127 25 67 0 123 2 125 5 1 3 8 14 14 25 10 19 22 20 170 20 87 0 165 4
172 8 6 5 12 17 12 28 0 17 8 19 96 19 86 0 95 -2 92 -17z m206 -62 c14 -26
19 -29 54 -24 36 5 40 3 50 -25 9 -26 14 -29 48 -28 30 1 39 -3 42 -17 2 -12
-4 -20 -17 -24 -11 -3 -23 -13 -26 -24 -4 -13 -18 -19 -48 -21 -35 -2 -44 -8
-55 -31 -10 -20 -19 -26 -31 -22 -25 8 -71 -11 -71 -30 0 -8 -6 -15 -13 -15
-7 0 -31 -13 -53 -30 -28 -21 -50 -30 -79 -30 -49 0 -68 -15 -54 -42 14 -26
109 -27 109 0 0 10 6 27 14 38 12 15 17 17 27 7 23 -23 58 -16 65 12 5 21 12
25 45 25 32 0 42 5 51 25 9 20 19 25 57 27 39 3 46 6 49 26 4 26 28 30 36 5 3
-10 5 -44 4 -75 0 -32 4 -64 11 -71 6 -8 7 -17 3 -21 -4 -4 -9 -155 -12 -334
l-5 -327 -22 -3 c-14 -2 -23 -11 -25 -25 -2 -16 -11 -23 -33 -25 -59 -5 -75
-12 -75 -32 0 -16 -7 -20 -34 -20 -47 0 -66 -9 -66 -31 0 -14 -9 -18 -47 -21
-41 -3 -48 -6 -51 -25 -3 -19 -11 -22 -50 -25 -40 -3 -47 -6 -50 -25 -3 -19
-10 -23 -40 -23 -43 0 -55 -6 -71 -38 -8 -15 -18 -21 -28 -18 -26 10 -64 -6
-73 -30 -8 -20 -17 -24 -48 -24 -32 0 -41 -5 -50 -25 -13 -27 -27 -32 -35 -12
-2 6 -5 195 -6 419 l-2 408 25 12 c15 6 26 19 26 28 0 19 27 30 73 30 20 0 30
7 37 24 7 20 17 25 52 28 38 3 43 6 43 28 0 24 -3 25 -55 25 -50 0 -55 -2 -58
-24 -3 -20 -8 -22 -34 -17 -32 6 -68 -14 -68 -39 0 -13 -56 -26 -77 -18 -7 3
-13 13 -13 23 0 24 -16 33 -54 32 -24 -1 -34 4 -41 21 -8 17 -20 23 -57 25
-39 3 -47 7 -50 25 -2 12 -12 23 -23 26 -22 4 -36 21 -29 33 3 4 25 8 50 8 40
0 44 2 44 25 0 23 3 25 50 25 44 0 52 3 60 24 7 20 17 25 52 28 36 2 44 7 46
26 3 18 10 22 38 22 42 0 74 15 74 35 0 9 14 15 43 17 32 2 44 8 52 26 7 17
18 22 45 22 42 0 55 8 64 38 6 18 14 22 51 22 37 0 44 3 49 23 5 22 11 24 90
26 85 2 85 1 100 -28z m-1334 -251 c0 -5 -4 -10 -10 -10 -5 0 -10 5 -10 10 0
6 5 10 10 10 6 0 10 -4 10 -10z m300 -150 c0 -5 -5 -10 -11 -10 -5 0 -7 5 -4
10 3 6 8 10 11 10 2 0 4 -4 4 -10z m148 -58 c3 -9 -2 -13 -14 -10 -9 1 -19 9
-22 16 -3 9 2 13 14 10 9 -1 19 -9 22 -16z m1736 -28 c9 -3 16 -14 16 -24 0
-12 9 -20 23 -22 22 -3 22 -5 27 -191 3 -113 1 -192 -5 -198 -5 -5 -17 -9 -27
-9 -13 0 -18 -8 -18 -25 0 -23 -4 -25 -45 -25 -39 0 -47 -3 -55 -25 -8 -21
-16 -25 -50 -25 -33 0 -42 -4 -52 -24 -8 -20 -20 -26 -52 -28 -31 -2 -43 -8
-51 -26 -5 -12 -17 -21 -25 -20 -12 3 -15 21 -15 95 0 56 -5 97 -11 103 -9 9
-8 18 2 38 16 31 8 112 -13 129 -12 10 -12 12 2 21 12 6 17 23 17 55 1 38 5
48 22 53 12 3 29 16 38 28 11 14 28 21 50 21 25 0 36 6 43 23 5 12 17 23 25
24 8 0 20 2 25 3 6 2 20 3 33 4 14 1 22 7 22 19 0 10 3 22 7 25 8 9 46 9 67 1z
m-1579 -64 c3 -5 1 -10 -4 -10 -6 0 -11 5 -11 10 0 6 2 10 4 10 3 0 8 -4 11
-10z m45 0 c0 -5 -4 -10 -10 -10 -5 0 -10 5 -10 10 0 6 5 10 10 10 6 0 10 -4
10 -10z m-353 -152 c-2 -24 -4 -5 -4 42 0 47 2 66 4 43 2 -24 2 -62 0 -85z m0
-230 c-3 -7 -5 -2 -5 12 0 14 2 19 5 13 2 -7 2 -19 0 -25z m1388 -128 c3 -5
-1 -10 -10 -10 -9 0 -13 5 -10 10 3 6 8 10 10 10 2 0 7 -4 10 -10z m95 -46 c0
-8 -4 -12 -10 -9 -5 3 -10 10 -10 16 0 5 5 9 10 9 6 0 10 -7 10 -16z"/>
<path d="M3208 3248 c-2 -19 -10 -24 -46 -26 -34 -3 -45 -8 -54 -27 -9 -19
-19 -25 -57 -27 -39 -3 -47 -7 -49 -25 -6 -44 89 -59 112 -18 16 29 27 35 63
35 20 0 36 7 42 17 5 9 29 22 53 28 36 8 43 14 46 38 3 27 2 27 -52 27 -49 0
-55 -2 -58 -22z"/>
<path d="M2490 2834 c-8 -21 -15 -25 -33 -20 -38 9 -67 -4 -67 -30 0 -22 -4
-24 -45 -24 -39 0 -47 -3 -55 -24 -7 -20 -17 -25 -52 -28 -36 -2 -44 -7 -46
-25 -3 -23 -41 -41 -61 -28 -15 9 -51 -13 -51 -30 0 -10 -11 -15 -34 -15 -50
0 -66 -9 -66 -37 0 -22 -4 -24 -37 -23 -21 1 -44 2 -50 1 -10 -1 -13 -73 -13
-325 0 -362 -3 -349 72 -344 35 2 44 7 46 25 3 18 11 22 45 25 32 2 44 8 52
26 7 17 18 22 45 22 42 0 56 8 62 35 3 15 12 20 38 21 54 1 57 3 63 24 3 13
14 20 30 20 42 0 77 18 77 39 0 16 8 20 43 23 36 3 43 7 45 27 3 21 8 23 42
18 73 -10 71 -21 68 343 l-3 325 -53 3 c-48 3 -53 1 -62 -24z m55 -309 l0
-269 -25 -6 c-16 -4 -26 -14 -28 -27 -3 -18 -11 -22 -50 -25 -40 -3 -47 -6
-50 -25 -3 -19 -11 -22 -50 -25 -40 -3 -47 -6 -50 -25 -3 -19 -10 -23 -42 -23
-31 0 -43 -5 -56 -25 -13 -20 -25 -25 -55 -25 -33 0 -41 -4 -49 -24 -7 -20
-17 -25 -52 -28 -33 -2 -45 -8 -53 -25 -5 -13 -15 -23 -22 -23 -10 0 -13 59
-13 270 0 233 2 270 15 270 8 0 15 -7 15 -15 0 -9 11 -20 25 -25 14 -5 28 -18
32 -27 9 -24 23 -33 55 -33 17 0 33 -8 40 -20 10 -16 24 -20 65 -20 47 0 53 2
53 20 0 12 -10 24 -24 29 -13 5 -26 19 -29 30 -4 17 -13 21 -46 21 -34 0 -42
4 -53 28 -11 22 -21 28 -56 30 -34 3 -43 7 -40 20 2 12 16 18 48 22 37 4 46 9
48 28 3 19 9 22 48 22 38 0 46 3 54 25 8 21 16 25 54 25 38 0 45 3 50 24 5 21
13 25 49 28 32 2 44 8 52 25 7 17 19 23 55 25 38 3 45 6 48 26 2 15 9 22 20
20 15 -3 17 -29 17 -273z"/>
<path d="M2450 2664 c0 -41 -3 -46 -30 -55 -26 -10 -30 -16 -30 -50 0 -28 -6
-42 -20 -51 -11 -7 -20 -23 -20 -35 0 -21 5 -23 49 -23 l50 0 3 47 c3 41 6 48
28 53 22 5 25 12 28 60 4 77 -3 100 -33 100 -23 0 -25 -4 -25 -46z"/>
<path d="M2390 2325 l-9 -25 -187 1 c-159 0 -190 -2 -203 -16 -15 -15 -14 -17
3 -30 15 -11 63 -14 235 -12 l216 2 3 53 c3 50 2 52 -23 52 -18 0 -28 -7 -35
-25z"/>
<path d="M2111 2791 c-22 -14 -3 -31 34 -31 40 0 53 15 26 29 -24 13 -41 14
-60 2z"/>
<path d="M2764 1942 c-7 -4 -13 -16 -16 -27 -3 -17 -10 -19 -45 -17 -37 3 -43
1 -55 -25 -10 -21 -21 -28 -43 -29 -51 -2 -54 -3 -57 -26 -2 -19 -10 -23 -38
-25 -19 -1 -40 -2 -47 -2 -6 -1 -13 -11 -15 -23 -2 -14 -12 -24 -28 -28 -37
-9 -35 -54 2 -58 21 -3 27 1 30 20 3 20 9 23 47 23 39 0 45 3 53 28 9 24 15
27 53 27 37 0 44 3 49 25 6 22 12 25 51 25 39 0 45 3 51 26 6 22 11 25 47 22
35 -3 42 -7 47 -28 5 -22 12 -25 48 -25 35 0 45 -4 55 -25 9 -19 22 -26 51
-28 28 -2 40 -9 43 -23 5 -18 28 -24 75 -20 9 1 24 -9 34 -23 13 -21 25 -26
55 -26 27 0 42 -5 46 -16 7 -18 -14 -35 -34 -27 -23 9 -61 -6 -68 -27 -5 -16
-15 -20 -50 -20 -39 0 -44 -3 -54 -30 -9 -27 -14 -30 -50 -30 -30 0 -43 -5
-51 -20 -7 -13 -21 -20 -40 -20 -44 0 -60 -10 -60 -36 0 -22 -4 -24 -49 -24
-40 0 -50 -3 -54 -20 -4 -14 -14 -20 -35 -20 -46 0 -62 -10 -62 -36 0 -22 -4
-24 -50 -24 -44 0 -50 -3 -56 -24 -5 -22 -11 -24 -47 -23 -36 2 -41 -1 -47
-23 -5 -22 -12 -25 -52 -28 -39 -3 -47 -7 -50 -25 -3 -18 -11 -23 -53 -27 -42
-4 -50 -8 -53 -27 -3 -20 -9 -23 -48 -23 -40 0 -44 2 -44 24 0 29 -21 39 -66
30 -29 -5 -33 -3 -36 18 -2 19 -10 23 -46 26 -34 3 -45 8 -52 26 -8 23 -35 36
-76 36 -13 0 -24 8 -27 19 -4 16 -15 20 -53 23 -36 2 -49 7 -49 18 0 11 13 16
43 18 35 3 45 8 52 28 8 19 17 24 44 24 47 0 66 9 66 31 0 14 9 18 48 21 43 3
47 5 50 31 3 27 2 27 -52 27 -45 0 -57 -4 -66 -20 -6 -11 -21 -20 -35 -20 -36
0 -56 -11 -66 -36 -7 -19 -16 -24 -45 -24 -29 0 -44 -8 -70 -35 -40 -40 -42
-58 -11 -99 13 -17 26 -39 30 -48 3 -10 14 -18 24 -19 60 -3 77 -6 81 -17 8
-26 35 -43 58 -38 18 5 27 0 39 -18 12 -19 27 -26 57 -28 29 -2 44 -9 52 -23
16 -28 27 -35 61 -35 17 0 50 -2 75 -5 48 -5 70 7 70 36 0 16 8 19 45 19 39 0
47 4 57 25 6 14 19 25 27 24 45 -4 62 2 71 26 8 21 16 25 50 25 33 0 42 4 52
25 9 21 18 25 54 25 37 0 43 3 46 23 2 16 11 23 33 25 59 5 75 12 75 32 0 16
7 20 35 20 25 0 43 7 58 24 15 16 36 26 62 28 30 2 42 9 50 26 7 15 18 22 38
22 36 0 67 16 67 35 0 10 10 15 28 15 47 0 71 11 74 34 2 17 11 22 47 24 32 2
44 8 48 21 3 10 16 24 29 30 29 13 33 51 5 58 -10 2 -24 16 -30 29 -9 20 -18
24 -51 24 -34 0 -42 4 -50 25 -8 20 -16 25 -45 25 -25 0 -41 7 -57 25 -15 17
-32 25 -54 25 -24 0 -37 6 -45 23 -16 31 -28 37 -71 37 -31 0 -38 4 -38 19 0
10 -7 22 -16 25 -21 8 -66 7 -80 -2z"/>
</g>
</svg>
